<svg width="203" height="53" viewBox="0 0 203 53" fill="none" xmlns="http://www.w3.org/2000/svg">
<g clip-path="url(#clip0_14492_8436)">
<g opacity="0.6">
<path opacity="0.6" d="M20.6926 3.25571C20.6836 4.08458 20.9919 4.8855 21.5545 5.49433L21.7576 5.6975L24.3445 8.29198L25.6064 9.56398L25.6569 9.61445C25.8687 9.85095 25.9781 10.1618 25.961 10.4789C25.9624 10.6454 25.9307 10.8106 25.8679 10.9649C25.8051 11.1191 25.7123 11.2594 25.595 11.3777C25.4777 11.4959 25.3381 11.5898 25.1844 11.6538C25.0306 11.7179 24.8657 11.7509 24.6991 11.7509C24.3854 11.7504 24.0813 11.6427 23.8372 11.4455L23.1785 12.1067C23.5926 12.4919 24.1349 12.7095 24.7004 12.7175C25.0418 12.7135 25.3781 12.634 25.6851 12.4845C25.9921 12.335 26.2622 12.1194 26.4759 11.8531C26.6702 12.1043 26.9159 12.3111 27.1967 12.4596C27.4774 12.6081 27.7867 12.6949 28.1037 12.7141C28.4207 12.7334 28.7382 12.6846 29.0348 12.5712C29.3315 12.4577 29.6005 12.2821 29.8237 12.0562L29.165 11.395C29.0457 11.5141 28.9031 11.6072 28.7461 11.6685C28.5891 11.7297 28.4211 11.7578 28.2526 11.7509C28.0861 11.7509 27.9212 11.7179 27.7674 11.6538C27.6136 11.5898 27.4741 11.4959 27.3568 11.3777C27.2394 11.2594 27.1467 11.1191 27.0839 10.9649C27.0211 10.8106 26.9894 10.6454 26.9907 10.4789C27 10.1418 27.1252 9.81819 27.3453 9.56271L28.6072 8.29071L31.2446 5.64071L31.3456 5.5385C31.9318 4.92055 32.2583 4.10115 32.2579 3.2494C32.2591 2.82247 32.1759 2.39951 32.0131 2.00483C31.8503 1.61015 31.6111 1.25153 31.3092 0.949578C31.0074 0.647627 30.6489 0.408296 30.2543 0.245336C29.8597 0.0823765 29.4367 -0.000999148 29.0098 -3.53175e-08C28.5342 -0.00490483 28.0637 0.0977667 27.6335 0.300337C27.2032 0.502906 26.8243 0.800132 26.5251 1.16979C26.2086 0.807159 25.819 0.515498 25.3819 0.313907C24.9448 0.112317 24.47 0.00534549 23.9887 -3.53175e-08C23.1202 -0.00403383 22.2856 0.336398 21.6678 0.946679C21.0499 1.55696 20.6992 2.3873 20.6926 3.25571ZM26.7283 3.76048C26.6526 3.80626 26.5633 3.82412 26.4759 3.81095C26.3887 3.81874 26.301 3.80121 26.2235 3.76048C26.1391 3.71494 26.0672 3.64934 26.0142 3.56945C25.9612 3.48956 25.9286 3.39785 25.9194 3.3024C25.9176 3.23557 25.9303 3.16914 25.9566 3.1077C25.983 3.04626 26.0224 2.99128 26.0721 2.94655L26.1226 2.89607L26.2235 2.79386L26.4759 2.54148L26.7283 2.79386L26.7787 2.84433L26.9314 2.99702C26.9875 3.08997 27.022 3.19433 27.0324 3.3024C27.0276 3.39955 26.9969 3.49364 26.9434 3.57487C26.8899 3.6561 26.8156 3.7215 26.7283 3.76426V3.76048ZM21.6567 3.25571C21.6555 2.94879 21.715 2.64466 21.8317 2.36077C21.9484 2.07689 22.12 1.81886 22.3366 1.60147C22.5533 1.38409 22.8108 1.21165 23.0943 1.09404C23.3778 0.97643 23.6817 0.915974 23.9887 0.916143C24.6178 0.92635 25.2182 1.1817 25.662 1.62786L25.8146 1.78055L25.4601 2.1364L25.4096 2.18688C25.278 2.32114 25.1743 2.48016 25.1046 2.65474C25.0348 2.82932 25.0004 3.016 25.0032 3.20398C25.0056 3.41671 25.0579 3.62592 25.1559 3.81474C25.3092 4.13423 25.5573 4.39864 25.8664 4.57188C25.9169 4.62236 26.0191 4.62236 26.0696 4.6741C26.2007 4.71588 26.3385 4.73299 26.4759 4.72457C26.6134 4.73638 26.7518 4.71918 26.8822 4.6741C26.9588 4.66165 27.0297 4.62597 27.0854 4.57188C27.4051 4.41254 27.6571 4.14393 27.7958 3.81474C27.8939 3.62592 27.9462 3.41671 27.9485 3.20398C27.9491 3.0043 27.9089 2.80662 27.8303 2.62304C27.7517 2.43947 27.6365 2.27387 27.4917 2.1364L27.1283 1.78055L27.3807 1.62786C27.7091 1.30506 28.1258 1.08684 28.5781 1.00075C29.0305 0.914653 29.4982 0.964556 29.9222 1.14415C30.3462 1.32375 30.7075 1.62498 30.9604 2.00979C31.2132 2.3946 31.3464 2.84573 31.3431 3.30619C31.3468 3.60767 31.2905 3.90687 31.1774 4.18635C31.0643 4.46584 30.8967 4.72001 30.6843 4.93405L30.432 5.13721L29.7732 5.79845L29.0161 6.5556L26.7787 8.79926L26.5756 9.00243C26.5251 9.0529 26.5251 9.10464 26.4746 9.10464C26.4241 9.05417 26.4241 9.00243 26.3737 8.95195L26.221 8.79926L23.9382 6.51017L22.3154 4.88231C22.1032 4.66842 21.9357 4.41445 21.8226 4.1352C21.7095 3.85594 21.6531 3.55698 21.6567 3.25571Z" fill="#FF417A"/>
</g>
<path d="M48.3327 10.5281C47.779 9.97474 47.1095 9.55096 46.3725 9.28717C45.6354 9.02338 44.8491 8.92613 44.07 9.00242H43.9173V8.84973C44.0321 7.7595 43.8053 6.66055 43.2683 5.70482C42.7313 4.7491 41.9106 3.98382 40.9197 3.51479C39.9289 3.04576 38.8168 2.89615 37.7372 3.08665C36.6576 3.27715 35.6639 3.79835 34.8934 4.57818C34.4205 5.04409 34.0417 5.59678 33.7779 6.20604C33.5248 6.82237 33.3706 7.47483 33.3211 8.13928V17.9544C33.2834 18.4789 33.048 18.9696 32.6624 19.3273C32.2446 19.7428 31.6793 19.9761 31.0901 19.9761C30.5008 19.9761 29.9355 19.7428 29.5177 19.3273C29.151 18.956 28.9191 18.4727 28.859 17.9544H27.5391C27.5842 18.8152 27.9434 19.6296 28.5486 20.2435C28.9385 20.6275 29.4101 20.9184 29.9281 21.0945C30.4462 21.2706 30.9974 21.3274 31.5406 21.2606H31.7033V21.4133C31.6239 21.9576 31.6739 22.513 31.8493 23.0344C32.0247 23.5557 32.3206 24.0284 32.7129 24.4141C33.3634 25.0601 34.2312 25.4407 35.1471 25.4816V24.1604C34.5931 24.1238 34.0709 23.8891 33.6757 23.4992C33.4545 23.2891 33.2776 23.0368 33.1556 22.7572C33.0335 22.4776 32.9688 22.1764 32.9653 21.8713C32.9671 21.279 33.204 20.7117 33.624 20.2939C34.059 19.8718 34.6407 19.6348 35.2468 19.6327H44.6795C45.3711 19.6327 46.0555 19.4929 46.6917 19.2219C47.3279 18.9508 47.9028 18.554 48.3819 18.0553C48.8806 17.5635 49.2764 16.9774 49.5464 16.3312C49.8163 15.6849 49.955 14.9914 49.9543 14.2911C49.9133 12.8759 49.3332 11.5298 48.3327 10.5281ZM47.4204 17.1404C46.7007 17.8505 45.7426 18.2675 44.7325 18.3102H34.5881V8.34118C34.5851 7.81303 34.6866 7.2895 34.8867 6.80071C35.0868 6.31192 35.3816 5.86751 35.7541 5.49307C36.121 5.11865 36.5589 4.8212 37.0422 4.61814C37.5255 4.41508 38.0445 4.31049 38.5687 4.31049C39.093 4.31049 39.6119 4.41508 40.0952 4.61814C40.5786 4.8212 41.0165 5.11865 41.3834 5.49307C41.7669 5.88065 42.0679 6.34188 42.2683 6.84893C42.4687 7.35599 42.5643 7.89838 42.5494 8.4434V8.94816H41.5853C41.2809 8.952 40.9804 9.01698 40.7017 9.13924C40.4229 9.2615 40.1715 9.43855 39.9625 9.65987C39.7315 9.89736 39.5429 10.1726 39.4048 10.4738C39.2019 11.0149 39.2019 11.6111 39.4048 12.1521L39.5574 12.4575C39.6634 12.6636 39.8005 12.8522 39.9638 13.0165C40.1105 13.163 40.2812 13.2834 40.4685 13.3724H40.519L40.8231 13.5251C41.3449 13.7285 41.9241 13.7285 42.4459 13.5251C42.75 13.4181 43.027 13.2458 43.2573 13.0203C43.4834 12.8034 43.663 12.5427 43.7852 12.2542C43.9073 11.9657 43.9694 11.6553 43.9678 11.342V10.3198L44.1205 10.2694H44.6253C45.1526 10.2666 45.6752 10.3686 46.1629 10.5694C46.6505 10.7702 47.0934 11.0658 47.4658 11.4392C48.2048 12.2069 48.6138 13.2335 48.6053 14.2991C48.5968 15.3646 48.1715 16.3846 47.4204 17.1404ZM42.6024 10.2744V11.4442C42.555 11.6804 42.4298 11.8939 42.2468 12.0506C42.0638 12.2072 41.8336 12.2981 41.5929 12.3086C41.4889 12.3168 41.3845 12.2994 41.2888 12.2581C41.136 12.2052 40.9973 12.1181 40.8831 12.0035C40.769 11.8889 40.6825 11.7499 40.6301 11.5969C40.5805 11.42 40.5777 11.2333 40.622 11.055C40.6662 10.8767 40.756 10.713 40.8824 10.5798C41.0565 10.3998 41.2913 10.291 41.5412 10.2744H42.6062H42.6024Z" fill="#FF417A"/>
<g opacity="0.6">
<path opacity="0.6" d="M49.7518 20.752C48.9248 20.7437 48.1262 21.0531 47.5207 21.6164L47.3176 21.8196L44.7357 24.4115L43.4738 25.6835L43.4233 25.734C43.3069 25.8392 43.1708 25.9203 43.0229 25.9727C42.8749 26.0251 42.7181 26.0478 42.5614 26.0394C42.3949 26.0394 42.2299 26.0064 42.0762 25.9424C41.9224 25.8783 41.7829 25.7845 41.6656 25.6662C41.5482 25.548 41.4555 25.4077 41.3927 25.2534C41.3299 25.0991 41.2982 24.934 41.2995 24.7674C41.2945 24.4571 41.3936 24.1541 41.5809 23.9068L40.9222 23.2455C40.5383 23.6617 40.3216 24.205 40.314 24.7712C40.3177 25.1131 40.3968 25.45 40.5458 25.7578C40.6948 26.0656 40.91 26.3367 41.1759 26.5517C40.9253 26.7475 40.7192 26.9943 40.5712 27.2757C40.4232 27.5572 40.3368 27.8669 40.3176 28.1843C40.2984 28.5017 40.3468 28.8195 40.4598 29.1168C40.5727 29.414 40.7476 29.6839 40.9727 29.9084L41.6314 29.2472C41.5124 29.1271 41.4195 28.9837 41.3585 28.8261C41.2975 28.6685 41.2697 28.4999 41.2768 28.331C41.2755 28.1645 41.3071 27.9993 41.37 27.845C41.4328 27.6907 41.5255 27.5504 41.6428 27.4322C41.7602 27.3139 41.8997 27.2201 42.0535 27.156C42.2072 27.092 42.3722 27.059 42.5387 27.059C42.8748 27.0688 43.1972 27.1945 43.4511 27.4149L44.713 28.6869L47.3504 31.3369L47.4513 31.4391C48.066 32.0269 48.8836 32.3551 49.7341 32.3552C50.1614 32.3559 50.5845 32.2721 50.9793 32.1086C51.374 31.9451 51.7325 31.7051 52.0342 31.4025C52.3358 31.1 52.5747 30.7407 52.7369 30.3455C52.8992 29.9502 52.9817 29.5268 52.9797 29.0995C52.9851 28.6232 52.8831 28.1518 52.6812 27.7203C52.4794 27.2888 52.1829 26.9084 51.8137 26.6073C52.1746 26.299 52.4653 25.9171 52.6664 25.4873C52.8675 25.0574 52.9743 24.5895 52.9797 24.115C53.0014 23.679 52.9338 23.2432 52.781 22.8344C52.6282 22.4255 52.3935 22.0521 52.0912 21.7372C51.7889 21.4223 51.4255 21.1725 51.0232 21.0031C50.6209 20.8336 50.1883 20.7482 49.7518 20.752ZM49.295 26.7536C49.2492 26.678 49.2313 26.5887 49.2445 26.5013C49.2369 26.414 49.2544 26.3265 49.295 26.2489C49.3401 26.1643 49.4055 26.0923 49.4851 26.039C49.5648 25.9857 49.6564 25.9529 49.7518 25.9435C49.8184 25.9417 49.8847 25.9544 49.9459 25.9808C50.0071 26.0071 50.0619 26.0465 50.1064 26.0962L50.1568 26.1467L50.2578 26.2489L50.5102 26.5013L50.2578 26.7536L50.2073 26.8559L50.0546 26.9581C49.9622 27.0146 49.8583 27.0495 49.7505 27.0603C49.6528 27.0607 49.5572 27.0316 49.4761 26.9769C49.3951 26.9222 49.3324 26.8444 49.2962 26.7536H49.295ZM49.7518 21.6669C50.0589 21.6664 50.363 21.7266 50.6467 21.8441C50.9305 21.9616 51.1881 22.134 51.405 22.3514C51.6218 22.5689 51.7936 22.827 51.9103 23.111C52.027 23.3951 52.0864 23.6994 52.085 24.0065C52.0751 24.637 51.8204 25.2388 51.3746 25.6848L51.2219 25.8375L50.8673 25.4816L50.8168 25.4312C50.6837 25.3001 50.526 25.1968 50.3527 25.127C50.1794 25.0573 49.9941 25.0226 49.8073 25.0248C49.5954 25.0272 49.387 25.0795 49.1991 25.1775C48.8794 25.3311 48.6149 25.5797 48.4419 25.8892C48.3914 25.9397 48.3914 26.0419 48.341 26.0924C48.2994 26.2236 48.2823 26.3613 48.2905 26.4987C48.2789 26.6362 48.2961 26.7746 48.341 26.9051C48.3535 26.9814 48.3887 27.0522 48.4419 27.1082C48.6009 27.4285 48.8696 27.681 49.1991 27.82C49.387 27.918 49.5954 27.9703 49.8073 27.9726C50.0067 27.9732 50.2041 27.9329 50.3873 27.8541C50.5705 27.7753 50.7356 27.6597 50.8723 27.5146L51.2269 27.1587L51.4301 27.3619C51.8513 27.7993 52.0872 28.3825 52.0888 28.9897C52.09 29.2968 52.0305 29.601 51.9137 29.885C51.7969 30.1689 51.6252 30.427 51.4084 30.6444C51.1916 30.8618 50.934 31.0342 50.6503 31.1518C50.3667 31.2693 50.0626 31.3296 49.7556 31.3293C49.4546 31.3331 49.1559 31.2765 48.8772 31.163C48.5985 31.0494 48.3454 30.8811 48.1328 30.6681L47.9296 30.4649L47.2709 29.8037L46.5137 29.0465L44.2751 26.8092L44.0719 26.606C44.0215 26.5555 43.971 26.5555 43.971 26.5038C44.0215 26.4533 44.0719 26.4533 44.1237 26.4016L44.2764 26.2489L46.5592 23.9598L48.182 22.3319C48.384 22.1194 48.6277 21.9508 48.8978 21.8366C49.1679 21.7224 49.4586 21.6651 49.7518 21.6682V21.6669Z" fill="#FF417A"/>
</g>
<g opacity="0.6">
<path opacity="0.6" d="M3.24582 32.3489C4.07408 32.3558 4.8733 32.0441 5.47813 31.4782L5.6813 31.275L8.2682 28.6806L9.53011 27.4086L9.58058 27.3581C9.69705 27.2529 9.83315 27.1718 9.98106 27.1194C10.129 27.067 10.2858 27.0443 10.4425 27.0527C10.609 27.0527 10.774 27.0857 10.9277 27.1497C11.0815 27.2138 11.221 27.3076 11.3384 27.4259C11.4557 27.5441 11.5484 27.6844 11.6112 27.8387C11.674 27.993 11.7057 28.1581 11.7044 28.3247C11.7038 28.639 11.5965 28.9437 11.4003 29.1891L12.059 29.8503C12.4429 29.4342 12.6596 28.8909 12.6672 28.3247C12.6631 27.9858 12.5848 27.6519 12.4378 27.3465C12.2909 27.0411 12.0789 26.7715 11.8167 26.5568C12.0673 26.361 12.2734 26.1142 12.4213 25.8328C12.5693 25.5513 12.6558 25.2416 12.675 24.9242C12.6942 24.6068 12.6457 24.289 12.5328 23.9917C12.4198 23.6945 12.245 23.4247 12.0198 23.2001L11.3573 23.855C11.4763 23.9751 11.5692 24.1185 11.6303 24.2761C11.6913 24.4337 11.7191 24.6023 11.7119 24.7712C11.7133 24.9377 11.6816 25.1029 11.6188 25.2572C11.556 25.4115 11.4632 25.5518 11.3459 25.67C11.2286 25.7883 11.0891 25.8821 10.9353 25.9462C10.7815 26.0102 10.6166 26.0432 10.45 26.0432C10.114 26.0334 9.7916 25.9077 9.53768 25.6873L8.27577 24.4153L5.63839 21.7653L5.53744 21.6631C4.9198 21.075 4.09866 20.7485 3.24582 20.752C2.81856 20.7513 2.39539 20.8352 2.00065 20.9987C1.60591 21.1622 1.2474 21.4021 0.945754 21.7047C0.644105 22.0073 0.405271 22.3666 0.242996 22.7618C0.0807201 23.157 -0.0017932 23.5805 0.000203865 24.0077C-0.00519828 24.4841 0.0968255 24.9555 0.298692 25.387C0.500558 25.8184 0.797075 26.1989 1.1662 26.5C0.654396 26.9368 0.287281 27.5188 0.113434 28.1688C-0.060413 28.8188 -0.0327989 29.5063 0.192623 30.1403C0.418045 30.7743 0.830649 31.3249 1.37584 31.7193C1.92104 32.1137 2.57312 32.3332 3.24582 32.3489ZM3.75058 26.2918C3.79637 26.3674 3.81423 26.4567 3.80106 26.5442C3.80863 26.6314 3.79112 26.7189 3.75058 26.7965C3.70541 26.8811 3.64009 26.9532 3.56041 27.0064C3.48074 27.0597 3.38915 27.0925 3.29378 27.1019C3.22713 27.1037 3.16089 27.091 3.09966 27.0646C3.03842 27.0383 2.98366 26.9989 2.93918 26.9492L2.8887 26.8988L2.78901 26.8092L2.53663 26.5568L2.78901 26.3044L2.83949 26.2539L2.99218 26.1012C3.08456 26.0447 3.18852 26.0098 3.2963 25.999C3.39182 26.0038 3.48438 26.0337 3.5646 26.0858C3.64482 26.1379 3.70986 26.2103 3.75311 26.2956L3.75058 26.2918ZM3.24582 31.3785C2.93906 31.379 2.63522 31.3189 2.35175 31.2017C2.06827 31.0844 1.81075 30.9124 1.59395 30.6953C1.37715 30.4783 1.20536 30.2206 1.08843 29.937C0.971495 29.6534 0.91173 29.3495 0.912561 29.0427C0.922453 28.4123 1.17724 27.8104 1.62301 27.3644L1.7757 27.2117L2.1303 27.5676L2.18078 27.618C2.31385 27.7491 2.47158 27.8525 2.64486 27.9223C2.81814 27.992 3.00353 28.0267 3.1903 28.0244C3.40223 28.022 3.61062 27.9697 3.79854 27.8717C4.11821 27.7181 4.38265 27.4695 4.55568 27.16C4.60616 27.1095 4.60616 27.0073 4.65663 26.9568C4.69821 26.8256 4.71532 26.6879 4.70711 26.5505C4.71865 26.413 4.70146 26.2746 4.65663 26.1441C4.64408 26.0678 4.60891 25.997 4.55568 25.941C4.39668 25.6207 4.12801 25.3682 3.79854 25.2292C3.61062 25.1312 3.40223 25.0789 3.1903 25.0766C2.99088 25.076 2.79346 25.1163 2.61027 25.1951C2.42707 25.2739 2.262 25.3895 2.12525 25.5346L1.77066 25.8905L1.56749 25.6873C1.14634 25.2499 0.910358 24.6667 0.908775 24.0595C0.907611 23.7524 0.967122 23.4482 1.08389 23.1642C1.20066 22.8803 1.37238 22.6222 1.58919 22.4048C1.806 22.1874 2.06363 22.015 2.34728 21.8974C2.63093 21.7799 2.935 21.7196 3.24204 21.7199C3.54299 21.7161 3.84165 21.7727 4.12038 21.8862C4.39911 21.9998 4.65225 22.1681 4.86485 22.3811L5.06801 22.5843L5.72673 23.2455L6.48387 24.0027L8.71492 26.2413L8.91808 26.4445C8.96856 26.4949 9.01904 26.4949 9.01904 26.5467C8.96856 26.5972 8.91809 26.5972 8.86635 26.6489L8.71366 26.8016L6.43592 29.0932L4.81816 30.7211C4.61873 30.9375 4.37513 31.1085 4.10386 31.2226C3.83259 31.3367 3.53997 31.3911 3.24582 31.3823V31.3785Z" fill="#FF417A"/>
</g>
<g opacity="0.6">
<path opacity="0.6" d="M32.2562 49.7481C32.2652 48.9192 31.9569 48.1183 31.3943 47.5094L31.2417 47.3063L28.6548 44.7118L27.3928 43.4398L27.3424 43.3893C27.1305 43.1528 27.0212 42.842 27.0383 42.5249C27.0369 42.3584 27.0686 42.1932 27.1314 42.0389C27.1942 41.8846 27.287 41.7443 27.4043 41.6261C27.5216 41.5078 27.6611 41.414 27.8149 41.3499C27.9687 41.2859 28.1336 41.2529 28.3002 41.2529C28.6139 41.2533 28.918 41.3611 29.162 41.5583L29.8208 40.8971C29.4067 40.5119 28.8643 40.2943 28.2989 40.2863C27.9575 40.2902 27.6212 40.3698 27.3141 40.5193C27.0071 40.6687 26.7371 40.8844 26.5234 41.1507C26.3291 40.8995 26.0833 40.6927 25.8026 40.5442C25.5218 40.3957 25.2126 40.3089 24.8956 40.2896C24.5785 40.2704 24.2611 40.3192 23.9644 40.4326C23.6678 40.5461 23.3988 40.7216 23.1756 40.9475L23.8343 41.6088C23.9535 41.4897 24.0962 41.3966 24.2532 41.3353C24.4102 41.2741 24.5782 41.246 24.7466 41.2529C24.9132 41.2529 25.0781 41.2859 25.2319 41.3499C25.3857 41.414 25.5252 41.5078 25.6425 41.6261C25.7598 41.7443 25.8526 41.8846 25.9154 42.0389C25.9782 42.1932 26.0099 42.3584 26.0085 42.5249C25.9993 42.862 25.8741 43.1856 25.6539 43.4411L24.3353 44.7131L21.7029 47.3504L21.602 47.4527C21.0157 48.0728 20.6903 48.8947 20.6934 49.7481C20.6914 50.1753 20.7739 50.5987 20.9362 50.994C21.0985 51.3892 21.3373 51.7485 21.6389 52.0511C21.9406 52.3537 22.2991 52.5936 22.6938 52.7571C23.0886 52.9206 23.5118 53.0044 23.939 53.0038C24.4146 53.0087 24.8851 52.906 25.3153 52.7034C25.7456 52.5009 26.1245 52.2036 26.4237 51.834C26.73 52.1954 27.1104 52.4869 27.539 52.6887C27.9677 52.8905 28.4346 52.998 28.9084 53.0038C29.3433 53.0149 29.7761 52.9389 30.1812 52.7804C30.5864 52.6219 30.9558 52.384 31.2677 52.0806C31.5795 51.7773 31.8277 51.4147 31.9974 51.0142C32.1672 50.6136 32.2552 50.1831 32.2562 49.7481ZM26.2205 49.2433C26.2962 49.1975 26.3855 49.1797 26.4729 49.1928C26.5602 49.185 26.6478 49.2026 26.7253 49.2433C26.8097 49.2888 26.8816 49.3544 26.9346 49.4343C26.9876 49.5142 27.0202 49.6059 27.0294 49.7014C27.0312 49.7682 27.0185 49.8346 26.9922 49.8961C26.9658 49.9575 26.9264 50.0125 26.8767 50.0572L26.8263 50.1077L26.7253 50.2099L26.4729 50.4623L26.2205 50.2099L26.1701 50.1594L26.0186 50.0004C25.9625 49.9075 25.928 49.8031 25.9177 49.6951C25.9695 49.5143 26.0756 49.354 26.2218 49.2357L26.2205 49.2433ZM31.3426 49.7481C31.3438 50.0551 31.2843 50.3593 31.1675 50.6433C31.0507 50.9273 30.879 51.1853 30.6622 51.4027C30.4454 51.6201 30.1878 51.7926 29.9041 51.9101C29.6205 52.0276 29.3164 52.088 29.0093 52.0876C28.3801 52.0776 27.7797 51.8222 27.3361 51.3759L27.1834 51.2232L27.538 50.8674L27.5884 50.8169C27.72 50.6826 27.8237 50.5236 27.8934 50.349C27.9632 50.1744 27.9976 49.9878 27.9948 49.7998C27.9924 49.5871 27.9401 49.3779 27.8421 49.189C27.6888 48.8696 27.4407 48.6051 27.1316 48.4319C27.0812 48.3814 26.9789 48.3814 26.9285 48.3297C26.7973 48.2879 26.6595 48.2708 26.5221 48.2792C26.3846 48.2674 26.2462 48.2846 26.1158 48.3297C26.0392 48.3421 25.9683 48.3778 25.9126 48.4319C25.5929 48.5912 25.3409 48.8598 25.2022 49.189C25.1041 49.3779 25.0518 49.5871 25.0495 49.7998C25.0489 49.9995 25.0892 50.1972 25.1677 50.3807C25.2463 50.5643 25.3615 50.7299 25.5063 50.8674L25.8609 51.2232L25.6577 51.4264C25.329 51.7466 24.913 51.9626 24.4619 52.0472C24.0108 52.1318 23.5448 52.0813 23.1224 51.902C22.6999 51.7227 22.3398 51.4227 22.0873 51.0395C21.8347 50.6563 21.701 50.207 21.7029 49.7481C21.6992 49.4466 21.7555 49.1474 21.8686 48.8679C21.9817 48.5884 22.1493 48.3343 22.3616 48.1202L22.5648 47.917L23.2235 47.2558L23.9807 46.4987L26.2117 44.26L26.4149 44.0569C26.4653 44.0064 26.4654 43.9547 26.5158 43.9547C26.5663 44.0051 26.5663 44.0569 26.6168 44.1074L26.7695 44.26L29.0523 46.5491L30.6751 48.177C30.8921 48.3761 31.064 48.6192 31.1794 48.8902C31.2947 49.1612 31.3508 49.4536 31.3439 49.7481H31.3426Z" fill="#FF417A"/>
</g>
<path d="M24.0898 17.9544C24.0521 18.479 23.8167 18.9696 23.4311 19.3273C23.2263 19.5367 22.9817 19.7031 22.7117 19.8167C22.4417 19.9303 22.1517 19.9888 21.8588 19.9888C21.5659 19.9888 21.2759 19.9303 21.0059 19.8167C20.7359 19.7031 20.4913 19.5367 20.2864 19.3273C19.9198 18.9561 19.6879 18.4727 19.6277 17.9544V8.13802C19.5699 6.79591 19.0085 5.52487 18.0554 4.57819C17.3101 3.83782 16.3624 3.33445 15.3317 3.13141C14.301 2.92837 13.2332 3.03474 12.2628 3.43713C11.2923 3.83952 10.4626 4.51995 9.87799 5.3928C9.29337 6.26564 8.97998 7.29191 8.97726 8.34245V8.95321H8.77409C8.03653 8.88321 7.29247 8.96777 6.58942 9.20149C5.88637 9.43522 5.23978 9.81297 4.69094 10.3106C4.14209 10.8083 3.70305 11.4149 3.40184 12.0918C3.10063 12.7687 2.94387 13.501 2.94157 14.2419C2.93603 14.9429 3.07248 15.6379 3.34271 16.2848C3.61293 16.9317 4.01133 17.5173 4.5139 18.0061C5.509 18.9738 6.82909 19.5357 8.21633 19.5822H17.6491C18.2532 19.594 18.8315 19.8297 19.2719 20.2435C19.6865 20.6638 19.9189 21.2305 19.9189 21.8209C19.9189 22.4113 19.6865 22.9779 19.2719 23.3982C18.8767 23.7882 18.3544 24.0229 17.8005 24.0595V25.382C18.2566 25.3731 18.7064 25.2742 19.1241 25.091C19.5419 24.9078 19.9193 24.6439 20.2347 24.3144C20.627 23.9288 20.9229 23.4561 21.0983 22.9347C21.2737 22.4133 21.3237 21.8579 21.2442 21.3136V21.1596H21.3969C21.94 21.2264 22.4912 21.1697 23.0093 20.9936C23.5274 20.8174 23.999 20.5265 24.3889 20.1425C24.9941 19.5287 25.3533 18.7143 25.3984 17.8534H24.0898V17.9544ZM10.3464 10.2744H11.4619C11.587 10.2763 11.7103 10.3045 11.8238 10.3571C11.9373 10.4097 12.0384 10.4856 12.1207 10.5798C12.2472 10.713 12.3369 10.8767 12.3811 11.055C12.4254 11.2333 12.4226 11.42 12.373 11.5969C12.3207 11.7499 12.2341 11.889 12.12 12.0035C12.0058 12.1181 11.8671 12.2052 11.7143 12.2581C11.6186 12.2995 11.5142 12.3168 11.4102 12.3086C11.2774 12.3075 11.1462 12.2799 11.0243 12.2274C10.9023 12.175 10.792 12.0988 10.6998 12.0032C10.5505 11.8473 10.4455 11.6543 10.3956 11.4442V11.1388L10.3464 10.2744ZM18.2081 18.362H8.26681C7.25671 18.3192 6.29862 17.9023 5.57895 17.1922C4.82393 16.4366 4.3998 15.4122 4.3998 14.3441C4.3998 13.2759 4.82393 12.2515 5.57895 11.4959C5.95139 11.1226 6.39428 10.827 6.88189 10.6262C7.36951 10.4253 7.89216 10.3234 8.4195 10.3262H9.07821V11.3433C9.08488 11.9744 9.34016 12.5775 9.78866 13.0216C10.014 13.2534 10.2925 13.4267 10.6001 13.5264C11.1219 13.7298 11.7011 13.7298 12.2229 13.5264L12.527 13.3737L12.5775 13.3232C12.7424 13.2217 12.8964 13.1033 13.0368 12.9699C13.2001 12.8055 13.3372 12.6169 13.4431 12.4108L13.5958 12.1054C13.7987 11.5644 13.7987 10.9682 13.5958 10.4271C13.4768 10.1282 13.3059 9.85268 13.0911 9.61319C12.6424 9.20505 12.0724 8.95507 11.4683 8.90147H10.4587V8.39671C10.4324 7.59828 10.6467 6.81037 11.0739 6.13529C11.501 5.46021 12.1213 4.92914 12.8541 4.61104C13.5869 4.29293 14.3984 4.20249 15.1833 4.35146C15.9681 4.50042 16.6901 4.8819 17.2554 5.44638C17.6278 5.82083 17.9226 6.26523 18.1227 6.75402C18.3228 7.24281 18.4243 7.76634 18.4214 8.2945V17.8534C18.4132 17.9578 18.4306 18.0626 18.4718 18.1588V18.3115L18.2081 18.362Z" fill="#FF417A"/>
<path d="M24.3943 32.807C24.0138 32.4098 23.5433 32.1101 23.0225 31.933C22.5018 31.756 21.9461 31.7069 21.4023 31.7899H21.2496V31.6372C21.3291 31.0929 21.2791 30.5375 21.1037 30.0161C20.9283 29.4947 20.6324 29.022 20.2401 28.6364C19.9224 28.3136 19.5434 28.0573 19.1254 27.8827C18.7075 27.708 18.2589 27.6185 17.8059 27.6193V28.9418C18.3598 28.9784 18.8821 29.2131 19.2773 29.603C19.6919 30.0233 19.9243 30.59 19.9243 31.1804C19.9243 31.7708 19.6919 32.3375 19.2773 32.7578C19.0686 32.976 18.8161 33.1477 18.5365 33.2617C18.2568 33.3756 17.9563 33.4292 17.6545 33.419H8.26716C7.57561 33.4191 6.89119 33.5588 6.25497 33.8299C5.61875 34.1009 5.04384 34.4977 4.56474 34.9964C3.78864 35.7695 3.27043 36.7635 3.08102 37.8424C2.89161 38.9213 3.04027 40.0324 3.50664 41.0236C3.97301 42.0148 4.73431 42.8376 5.68633 43.3795C6.63835 43.9213 7.73456 44.1557 8.82493 44.0506H8.97762V44.2033C8.86122 45.295 9.08737 46.3958 9.62472 47.3532C10.1621 48.3106 10.984 49.0771 11.9765 49.5464C12.9691 50.0157 14.083 50.1645 15.1639 49.9723C16.2449 49.7801 17.2392 49.2563 18.0091 48.4735C18.9618 47.5245 19.5214 46.251 19.5764 44.9074V35.0961C19.6471 34.5808 19.8774 34.1007 20.2351 33.7231C20.6529 33.3076 21.2182 33.0744 21.8074 33.0744C22.3966 33.0744 22.9619 33.3076 23.3797 33.7231C23.5864 33.8907 23.7561 34.0991 23.8784 34.3354C24.0006 34.5717 24.0727 34.8306 24.0902 35.0961H25.4089C25.3624 34.2346 25.0014 33.4201 24.3943 32.807ZM18.3081 34.8412V44.7598C18.3111 45.2879 18.2096 45.8114 18.0095 46.3002C17.8094 46.789 17.5146 47.2334 17.1421 47.6079C16.3844 48.3538 15.3649 48.7737 14.3016 48.7777C13.2403 48.764 12.2242 48.3456 11.461 47.6079C11.0776 47.2203 10.7766 46.7591 10.5762 46.252C10.3758 45.7449 10.2802 45.2026 10.295 44.6575V44.1528H11.3601C11.6645 44.1489 11.965 44.084 12.2438 43.9617C12.5225 43.8394 12.7739 43.6624 12.9829 43.4411C13.2148 43.2148 13.3881 42.9354 13.4877 42.6271C13.6899 42.086 13.6899 41.49 13.4877 40.9488L13.335 40.6434C13.229 40.4373 13.092 40.2488 12.9286 40.0844C12.7819 39.9379 12.6112 39.8176 12.4239 39.7285V39.6781L12.1198 39.5254C11.598 39.3219 11.0188 39.3219 10.497 39.5254C10.1864 39.6455 9.90845 39.837 9.68555 40.0844C9.45946 40.3013 9.27989 40.562 9.15775 40.8505C9.03561 41.139 8.97346 41.4494 8.97509 41.7627V42.7798L8.8224 42.8303H8.31764C7.52682 42.8334 6.7529 42.6016 6.094 42.1643C5.4351 41.727 4.92091 41.1038 4.61663 40.3739C4.31235 39.6439 4.23169 38.8401 4.38489 38.0642C4.53808 37.2884 4.91821 36.5755 5.47709 36.016C6.19657 35.3044 7.15518 34.886 8.16621 34.8424H18.3094L18.3081 34.8412ZM10.295 41.6063C10.3335 41.392 10.4402 41.1959 10.5992 41.0472C10.7313 40.9215 10.8937 40.8321 11.0706 40.7879C11.2476 40.7437 11.433 40.7461 11.6087 40.7948C11.7615 40.8478 11.9002 40.9349 12.0143 41.0495C12.1285 41.164 12.215 41.3031 12.2674 41.4561C12.317 41.633 12.3197 41.8197 12.2755 41.998C12.2313 42.1762 12.1415 42.34 12.015 42.4732C11.8348 42.6443 11.6034 42.7516 11.3563 42.7786H10.2913L10.295 41.6063Z" fill="#FF417A"/>
<path d="M48.3324 34.9951C47.8492 34.5018 47.2735 34.1086 46.6382 33.8379C46.0029 33.5673 45.3205 33.4245 44.63 33.4178H35.1973C34.7552 33.4179 34.323 33.2868 33.9556 33.0409C33.5882 32.7951 33.3021 32.4456 33.1337 32.0369C32.9652 31.6282 32.922 31.1786 33.0094 30.7453C33.0969 30.312 33.3111 29.9144 33.6249 29.603C34.0201 29.2131 34.5424 28.9784 35.0963 28.9418V27.6193C34.1861 27.6415 33.3175 28.0044 32.6621 28.6364C32.2698 29.022 31.9739 29.4947 31.7985 30.0161C31.6231 30.5375 31.5731 31.0929 31.6526 31.6372V31.7899H31.4999C30.9547 31.7094 30.3982 31.7596 29.8762 31.9364C29.3542 32.1133 28.8818 32.4117 28.4978 32.807C27.8925 33.4208 27.5333 34.2352 27.4883 35.0961H28.807C28.8553 34.5744 29.089 34.0873 29.4657 33.7231C29.8835 33.3076 30.4488 33.0744 31.038 33.0744C31.6273 33.0744 32.1925 33.3076 32.6104 33.7231C32.977 34.0944 33.2089 34.5777 33.2691 35.0961V44.9074C33.3266 46.25 33.888 47.5215 34.8414 48.4685C35.3306 48.9677 35.9145 49.3643 36.559 49.6351C37.2034 49.9058 37.8953 50.0453 38.5943 50.0453C39.2933 50.0453 39.9852 49.9058 40.6296 49.6351C41.2741 49.3643 41.858 48.9677 42.3472 48.4685C42.899 47.9117 43.3214 47.2402 43.5844 46.5017C43.8474 45.7633 43.9446 44.9759 43.8691 44.1957V44.043H44.1214C45.2158 44.1593 46.3191 43.9305 47.277 43.3886C48.2348 42.8467 48.9993 42.0188 49.4632 41.0209C49.9272 40.023 50.0675 38.905 49.8645 37.8233C49.6615 36.7417 49.1254 35.7506 48.3312 34.9888L48.3324 34.9951ZM42.6009 42.7773H41.5358C41.4107 42.7754 41.2875 42.7473 41.174 42.6947C41.0605 42.642 40.9593 42.5662 40.8771 42.4719C40.7506 42.3387 40.6608 42.175 40.6166 41.9967C40.5724 41.8184 40.5752 41.6317 40.6247 41.4548C40.6771 41.3018 40.7636 41.1628 40.8778 41.0482C40.9919 40.9336 41.1306 40.8466 41.2834 40.7936C41.4592 40.7448 41.6445 40.7424 41.8215 40.7866C41.9984 40.8309 42.1608 40.9202 42.2929 41.046C42.4422 41.202 42.5472 41.3949 42.5971 41.605L42.6009 42.7773ZM47.4188 41.6075C47.0564 41.9798 46.6226 42.2753 46.1435 42.4763C45.6643 42.6773 45.1496 42.7796 44.63 42.7773H44.0192V41.7602C44.0126 41.1291 43.7573 40.526 43.3088 40.0819C43.0721 39.8507 42.7977 39.6616 42.4974 39.5229C41.9756 39.3194 41.3964 39.3194 40.8746 39.5229L40.5704 39.6755H40.4178C40.2561 39.7816 40.1033 39.9006 39.9609 40.0314C39.7976 40.1958 39.6606 40.3843 39.5546 40.5904L39.4019 40.8958C39.1997 41.437 39.1997 42.033 39.4019 42.5741C39.5216 42.8854 39.7126 43.1642 39.9597 43.3881C40.4029 43.8045 40.9759 44.0558 41.5825 44.0998H42.592V44.6045C42.6119 45.1502 42.5186 45.694 42.3179 46.2018C42.1172 46.7096 41.8136 47.1703 41.426 47.5549C40.6706 48.2999 39.6541 48.7205 38.593 48.7272C37.5317 48.7135 36.5157 48.2951 35.7525 47.5574C35.38 47.183 35.0852 46.7386 34.8851 46.2498C34.685 45.761 34.5835 45.2374 34.5865 44.7093V34.686H44.6817C45.4682 34.719 46.2283 34.9794 46.8699 35.4355C47.5116 35.8915 48.0072 36.5238 48.297 37.2558C48.5867 37.9877 48.6581 38.788 48.5024 39.5596C48.3468 40.3313 47.9709 41.0413 47.4201 41.6037L47.4188 41.6075Z" fill="#FF417A"/>
</g>
<path d="M76.0269 19.3608C76.0269 21.8354 75.3535 23.729 74.0068 25.0415C72.667 26.3472 70.7358 27 68.2134 27H64.0605V12.0088H68.6543C70.9854 12.0088 72.7969 12.6548 74.0889 13.9468C75.3809 15.2388 76.0269 17.0435 76.0269 19.3608ZM74.1812 19.4224C74.1812 17.4673 73.689 15.9941 72.7046 15.0029C71.7271 14.0117 70.271 13.5161 68.3364 13.5161H65.8037V25.4927H67.9263C70.0044 25.4927 71.5664 24.9834 72.6123 23.9648C73.6582 22.9395 74.1812 21.4253 74.1812 19.4224Z" fill="#292933"/>
<path d="M84.8399 27V12.0088H86.583V27H84.8399Z" fill="#292933"/>
<path d="M102.584 13.3521C100.937 13.3521 99.6344 13.9023 98.6773 15.0029C97.7271 16.0967 97.252 17.5972 97.252 19.5044C97.252 21.4663 97.71 22.9839 98.6261 24.0571C99.5489 25.1235 100.861 25.6567 102.564 25.6567C103.609 25.6567 104.802 25.4688 106.142 25.0928V26.6206C105.103 27.0103 103.821 27.2051 102.297 27.2051C100.089 27.2051 98.3834 26.5352 97.1803 25.1953C95.984 23.8555 95.3858 21.9517 95.3858 19.4839C95.3858 17.939 95.6729 16.5854 96.2471 15.4233C96.8282 14.2612 97.6622 13.3657 98.7491 12.7368C99.8428 12.1079 101.128 11.7935 102.605 11.7935C104.177 11.7935 105.551 12.0806 106.727 12.6548L105.988 14.1519C104.854 13.6187 103.719 13.3521 102.584 13.3521Z" fill="#292933"/>
<path d="M123.23 27H114.873V12.0088H123.23V13.5571H116.616V18.3867H122.83V19.9248H116.616V25.4414H123.23V27Z" fill="#292933"/>
<path d="M143.733 27H141.743L133.55 14.4185H133.468C133.578 15.895 133.632 17.2485 133.632 18.479V27H132.023V12.0088H133.991L142.164 24.5391H142.246C142.232 24.3545 142.201 23.7632 142.153 22.7651C142.106 21.7603 142.089 21.0425 142.102 20.6118V12.0088H143.733V27Z" fill="#292933"/>
<path d="M157.929 27H156.186V13.5571H151.438V12.0088H162.676V13.5571H157.929V27Z" fill="#292933"/>
<path d="M172.146 20.7656V27H170.403V12.0088H174.514C176.353 12.0088 177.71 12.3608 178.585 13.0649C179.467 13.769 179.908 14.8286 179.908 16.2437C179.908 18.2261 178.903 19.5659 176.893 20.2632L180.964 27H178.903L175.273 20.7656H172.146ZM172.146 19.2686H174.535C175.765 19.2686 176.668 19.0259 177.242 18.5405C177.816 18.0483 178.103 17.3135 178.103 16.3359C178.103 15.3447 177.809 14.6304 177.221 14.1929C176.64 13.7554 175.704 13.5366 174.412 13.5366H172.146V19.2686Z" fill="#292933"/>
<path d="M198.267 27L196.401 22.2319H190.392L188.547 27H186.783L192.71 11.9473H194.176L200.072 27H198.267ZM195.858 20.6631L194.115 16.0181C193.889 15.4302 193.657 14.709 193.417 13.8545C193.267 14.5107 193.052 15.2319 192.771 16.0181L191.008 20.6631H195.858Z" fill="#292933"/>
<path d="M69.1777 41.4209C69.1777 42.5635 68.888 43.4619 68.3086 44.1162C67.7324 44.7705 66.93 45.0977 65.9014 45.0977C64.8499 45.0977 64.0378 44.777 63.4648 44.1357C62.8952 43.4912 62.6104 42.583 62.6104 41.4111C62.6104 40.249 62.8968 39.349 63.4697 38.7109C64.0426 38.0697 64.8564 37.749 65.9111 37.749C66.9365 37.749 67.7373 38.0745 68.3135 38.7256C68.8896 39.3766 69.1777 40.2751 69.1777 41.4209ZM63.4893 41.4209C63.4893 42.3877 63.6943 43.1217 64.1045 43.623C64.5179 44.1211 65.1169 44.3701 65.9014 44.3701C66.6924 44.3701 67.2897 44.1211 67.6934 43.623C68.097 43.125 68.2988 42.391 68.2988 41.4209C68.2988 40.4606 68.097 39.7331 67.6934 39.2383C67.293 38.7402 66.6989 38.4912 65.9111 38.4912C65.1201 38.4912 64.5179 38.7419 64.1045 39.2432C63.6943 39.7412 63.4893 40.4671 63.4893 41.4209Z" fill="#292933"/>
<path d="M80.1033 42.9199C80.1033 43.6296 79.8917 44.1536 79.4686 44.4922C79.0486 44.8307 78.4139 45 77.5643 45H75.4744V37.8613H79.6834V38.5986H76.3045V40.9082H77.4129C78.0411 40.9082 78.5522 40.9814 78.9461 41.1279C79.34 41.2712 79.6313 41.4844 79.8201 41.7676C80.0089 42.0508 80.1033 42.4349 80.1033 42.9199ZM76.3045 44.2822H77.4715C78.09 44.2822 78.5392 44.1764 78.8191 43.9648C79.1023 43.7533 79.2439 43.4049 79.2439 42.9199C79.2439 42.4577 79.1007 42.1289 78.8143 41.9336C78.5278 41.7383 78.0281 41.6406 77.3152 41.6406H76.3045V44.2822Z" fill="#292933"/>
<path d="M86.317 37.8613H87.0934V41.8311C87.0934 42.5635 87.0706 43.2259 87.025 43.8184H87.0641L91.068 37.8613H91.9762V45H91.1949V41.0693C91.1949 40.415 91.2226 39.7282 91.2779 39.0088H91.234L87.2252 45H86.317V37.8613Z" fill="#292933"/>
<path d="M103.161 39.9414C103.161 40.6641 102.913 41.2207 102.418 41.6113C101.927 41.9987 101.222 42.1924 100.304 42.1924H99.4643V45H98.6342V37.8613H100.485C102.269 37.8613 103.161 38.5547 103.161 39.9414ZM99.4643 41.4795H100.211C100.947 41.4795 101.479 41.3607 101.808 41.123C102.137 40.8854 102.301 40.5046 102.301 39.9805C102.301 39.5085 102.147 39.1569 101.837 38.9258C101.528 38.6947 101.046 38.5791 100.392 38.5791H99.4643V41.4795Z" fill="#292933"/>
<path d="M113.847 45L112.958 42.7295H110.097L109.218 45H108.378L111.2 37.832H111.899L114.706 45H113.847ZM112.699 41.9824L111.869 39.7705C111.762 39.4906 111.651 39.1471 111.537 38.7402C111.466 39.0527 111.363 39.3962 111.23 39.7705L110.39 41.9824H112.699Z" fill="#292933"/>
<path d="M120.397 37.8613H121.174V41.8311C121.174 42.5635 121.151 43.2259 121.105 43.8184H121.145L125.148 37.8613H126.057V45H125.275V41.0693C125.275 40.415 125.303 39.7282 125.358 39.0088H125.314L121.306 45H120.397V37.8613ZM123.356 37.29C122.754 37.29 122.315 37.1745 122.038 36.9434C121.761 36.709 121.607 36.3249 121.574 35.791H122.336C122.365 36.1296 122.453 36.3656 122.6 36.499C122.749 36.6325 123.008 36.6992 123.376 36.6992C123.711 36.6992 123.959 36.6276 124.118 36.4844C124.281 36.3411 124.38 36.11 124.416 35.791H125.183C125.144 36.3053 124.979 36.6846 124.689 36.9287C124.4 37.1696 123.955 37.29 123.356 37.29Z" fill="#292933"/>
<path d="M143.069 38.501C142.284 38.501 141.664 38.763 141.209 39.2871C140.756 39.8079 140.53 40.5225 140.53 41.4307C140.53 42.3649 140.748 43.0876 141.184 43.5986C141.624 44.1064 142.249 44.3604 143.059 44.3604C143.557 44.3604 144.125 44.2708 144.763 44.0918V44.8193C144.268 45.0049 143.658 45.0977 142.932 45.0977C141.881 45.0977 141.069 44.7786 140.496 44.1406C139.926 43.5026 139.641 42.596 139.641 41.4209C139.641 40.6852 139.778 40.0407 140.051 39.4873C140.328 38.9339 140.725 38.5075 141.243 38.208C141.764 37.9085 142.376 37.7588 143.079 37.7588C143.827 37.7588 144.482 37.8955 145.042 38.1689L144.69 38.8818C144.15 38.6279 143.609 38.501 143.069 38.501Z" fill="#292933"/>
<path d="M155 45H151.021V37.8613H155V38.5986H151.851V40.8984H154.81V41.6309H151.851V44.2578H155V45Z" fill="#292933"/>
<path d="M165.814 39.9414C165.814 40.6641 165.566 41.2207 165.071 41.6113C164.58 41.9987 163.875 42.1924 162.957 42.1924H162.117V45H161.287V37.8613H163.138C164.922 37.8613 165.814 38.5547 165.814 39.9414ZM162.117 41.4795H162.864C163.6 41.4795 164.132 41.3607 164.461 41.123C164.79 40.8854 164.954 40.5046 164.954 39.9805C164.954 39.5085 164.8 39.1569 164.49 38.9258C164.181 38.6947 163.699 38.5791 163.045 38.5791H162.117V41.4795Z" fill="#292933"/>
<path d="M177.34 44.248H178.18V46.8604H177.394V45H172.013V37.8613H172.843V44.248H176.51V37.8613H177.34V44.248Z" fill="#292933"/>
<path d="M188.065 45H184.086V37.8613H188.065V38.5986H184.916V40.8984H187.875V41.6309H184.916V44.2578H188.065V45Z" fill="#292933"/>
<path d="M197.511 45L195.089 38.6719H195.05C195.096 39.1732 195.119 39.7689 195.119 40.459V45H194.352V37.8613H195.602L197.863 43.75H197.902L200.182 37.8613H201.422V45H200.592V40.4004C200.592 39.873 200.615 39.3001 200.661 38.6816H200.622L198.18 45H197.511Z" fill="#292933"/>
<defs>
<clipPath id="clip0_14492_8436">
<rect width="53" height="53" fill="white"/>
</clipPath>
</defs>
</svg>
